<?xml version="1.0" standalone="no"?>
<!DOCTYPE svg PUBLIC "-//W3C//DTD SVG 20010904//EN"
 "http://www.w3.org/TR/2001/REC-SVG-20010904/DTD/svg10.dtd">
<svg version="1.0" xmlns="http://www.w3.org/2000/svg"
 width="240.000000pt" height="240.000000pt" viewBox="0 0 240.000000 240.000000"
 preserveAspectRatio="xMidYMid meet">
<metadata>
Created by potrace 1.11, written by Peter Selinger 2001-2013
</metadata>
<g transform="translate(0.000000,240.000000) scale(0.100000,-0.100000)"
fill="#000000" stroke="none">
<path d="M1458 2322 c-11 -26 -38 -85 -59 -132 -21 -47 -43 -84 -49 -82 -48
12 -82 12 -78 1 8 -25 194 -109 241 -109 15 0 -23 39 -44 45 -30 10 -32 5 77
242 20 43 19 46 -26 65 l-40 17 -22 -47z"/>
<path d="M1307 1990 c-9 -22 -17 -45 -17 -50 0 -13 39 -12 -535 -14 -280 -1
-515 -5 -521 -9 -8 -5 -12 -67 -13 -199 0 -106 -1 -205 -1 -220 0 -20 -10 -32
-42 -51 -166 -97 -213 -329 -99 -487 29 -41 75 -87 114 -115 l28 -21 0 -291
c1 -220 4 -295 13 -302 8 -7 123 -12 306 -13 278 -3 293 -4 304 -22 15 -27 84
-96 121 -122 28 -20 92 -46 125 -51 159 -25 284 29 360 155 l25 41 216 1 c161
0 219 3 227 13 7 8 11 180 11 507 0 272 1 505 1 516 0 16 11 26 38 37 64 28
65 29 47 75 l-17 41 -34 -14 c-25 -10 -34 -11 -35 -2 0 7 -1 126 -1 264 1 183
-3 255 -11 260 -7 4 -127 8 -267 9 -140 1 -258 2 -262 3 -3 0 0 15 9 32 8 16
13 31 12 32 -7 4 -80 37 -82 37 -1 0 -10 -18 -20 -40z"/>
<path d="M2295 1546 c-16 -7 -61 -28 -100 -45 -144 -65 -127 -62 -150 -28 -34
51 -47 46 -29 -12 27 -91 80 -191 101 -191 12 0 12 24 0 36 -16 17 -6 55 16
63 13 5 63 28 111 50 49 23 91 41 94 41 4 0 13 4 21 9 11 7 10 16 -5 50 -20
46 -18 45 -59 27z"/>
</g>
</svg>
